<?xml version="1.0" standalone="no"?>
<!DOCTYPE svg PUBLIC "-//W3C//DTD SVG 20010904//EN"
 "http://www.w3.org/TR/2001/REC-SVG-20010904/DTD/svg10.dtd">
<svg version="1.0" xmlns="http://www.w3.org/2000/svg"
 width="500.000000pt" height="500.000000pt" viewBox="0 0 500.000000 500.000000"
 preserveAspectRatio="xMidYMid meet">
<metadata>
Created by potrace 1.14, written by Peter Selinger 2001-2017
</metadata>
<g transform="translate(0.000000,500.000000) scale(0.100000,-0.100000)"
fill="#000000" stroke="none">
<path d="M2115 3268 c5 -102 32 -252 55 -313 6 -17 16 -52 21 -78 10 -55 55
-114 138 -183 40 -33 56 -41 62 -32 10 16 -16 45 -108 115 -57 43 -73 62 -74
82 0 14 -2 33 -3 41 -2 8 -6 44 -10 80 -4 36 -11 92 -17 125 -10 62 -57 225
-64 225 -2 0 -2 -28 0 -62z"/>
<path d="M2866 3283 c-34 -106 -52 -204 -71 -384 -7 -66 -12 -76 -59 -108 -22
-16 -63 -49 -89 -73 -41 -38 -46 -46 -34 -57 13 -10 29 2 99 71 l83 83 37 150
c21 83 40 168 43 190 9 76 16 175 11 175 -2 0 -11 -21 -20 -47z"/>
<path d="M1756 3165 c57 -68 145 -156 229 -228 79 -68 102 -98 140 -183 21
-48 38 -68 87 -104 34 -25 83 -57 110 -72 45 -24 48 -25 48 -7 0 10 -4 19 -9
19 -5 0 -16 6 -24 14 -8 8 -52 39 -99 69 -83 54 -84 55 -125 143 -37 79 -53
100 -145 189 -103 101 -167 155 -223 191 -28 18 -27 16 11 -31z"/>
<path d="M3211 3164 c-34 -25 -113 -94 -174 -154 -96 -93 -116 -118 -141 -177
-41 -96 -57 -115 -128 -157 -78 -46 -142 -99 -137 -113 2 -7 28 3 65 25 113
68 151 104 178 162 42 91 67 123 151 196 102 88 270 264 253 264 -2 0 -32 -21
-67 -46z"/>
<path d="M2441 2839 c-1 -8 5 -24 13 -34 12 -17 12 -21 -5 -33 -16 -11 -29
-72 -15 -72 1 0 17 5 34 11 21 7 42 7 66 1 35 -10 36 -10 36 18 0 34 -31 60
-72 60 -22 0 -31 7 -42 33 -8 17 -15 25 -15 16z"/>
<path d="M2546 2841 c-4 -7 -5 -15 -2 -18 9 -9 19 4 14 18 -4 11 -6 11 -12 0z"/>
<path d="M2444 2690 c-44 -22 -64 -53 -64 -100 0 -51 9 -61 49 -55 l36 5 -40
-13 c-82 -25 -136 -66 -176 -132 -31 -52 -34 -170 -6 -226 25 -51 83 -106 137
-131 64 -29 181 -29 243 1 99 48 156 134 158 239 1 31 3 49 6 40 2 -9 26 -24
53 -34 48 -17 50 -19 59 -68 11 -53 25 -179 23 -208 0 -10 -16 -57 -35 -105
-32 -80 -77 -216 -77 -231 0 -28 79 121 123 233 l36 90 -29 115 c-17 63 -30
127 -30 141 0 21 -10 34 -47 57 -27 17 -57 32 -68 34 -11 2 -27 18 -36 38 -9
19 -36 55 -60 79 -24 24 -34 39 -23 33 11 -6 26 -18 33 -26 7 -8 31 -18 54
-21 95 -16 124 -33 225 -133 89 -89 178 -157 157 -121 -53 91 -195 218 -271
241 -30 9 -60 20 -67 26 -22 17 -122 49 -142 46 -11 -2 -33 3 -50 10 -16 8
-37 16 -45 20 -8 3 -3 4 12 1 22 -4 28 0 35 23 32 98 -76 181 -173 132z m106
-150 c0 -3 -18 -6 -40 -5 -22 0 -40 4 -40 8 0 4 18 7 40 5 22 -1 40 -5 40 -8z"/>
<path d="M2251 2481 c-31 -13 -84 -33 -117 -45 -69 -24 -154 -90 -224 -174
-64 -76 -68 -86 -23 -60 21 12 79 64 130 115 94 94 126 113 218 127 21 4 48
15 60 25 11 10 29 23 40 29 40 22 -26 9 -84 -17z"/>
<path d="M2148 2315 c-54 -34 -56 -36 -63 -91 -3 -30 -16 -87 -27 -127 -10
-40 -20 -83 -20 -97 0 -25 57 -173 91 -234 10 -17 26 -47 35 -65 10 -18 20
-31 22 -28 6 6 -53 189 -83 257 -13 30 -25 62 -25 70 0 17 13 167 17 190 13
74 16 79 66 95 27 9 49 20 49 25 0 5 3 15 6 24 9 24 -6 20 -68 -19z"/>
</g>
</svg>
